<svg width="25" height="25" viewBox="0 0 25 25" fill="none" xmlns="http://www.w3.org/2000/svg">
<g id="instagram-line">
<path id="Vector" d="M12.281 9.5C10.6236 9.5 9.28098 10.8431 9.28098 12.5C9.28098 14.1573 10.6241 15.5 12.281 15.5C13.9383 15.5 15.281 14.1569 15.281 12.5C15.281 10.8427 13.9379 9.5 12.281 9.5ZM12.281 7.5C15.0414 7.5 17.281 9.7371 17.281 12.5C17.281 15.2605 15.0439 17.5 12.281 17.5C9.52051 17.5 7.28098 15.2629 7.28098 12.5C7.28098 9.73953 9.51808 7.5 12.281 7.5ZM18.781 7.24915C18.781 7.93926 18.2202 8.49917 17.531 8.49917C16.8409 8.49917 16.281 7.9384 16.281 7.24915C16.281 6.5599 16.8417 6 17.531 6C18.2193 5.99913 18.781 6.5599 18.781 7.24915ZM12.281 4.5C9.8065 4.5 9.40318 4.50655 8.25227 4.5578C7.46815 4.59461 6.94253 4.70007 6.45416 4.88967C6.02016 5.05799 5.70709 5.25898 5.37352 5.59255C5.03867 5.9274 4.83804 6.23963 4.6704 6.67383C4.48036 7.16332 4.37493 7.68811 4.33878 8.47115C4.28703 9.5752 4.28098 9.96105 4.28098 12.5C4.28098 14.9745 4.28753 15.3778 4.33877 16.5286C4.3756 17.3124 4.4812 17.8388 4.67034 18.326C4.8391 18.7606 5.0405 19.0744 5.37246 19.4064C5.70863 19.7421 6.02179 19.9434 6.45187 20.1094C6.94619 20.3005 7.47148 20.4061 8.25212 20.4422C9.35618 20.4939 9.74203 20.5 12.281 20.5C14.7555 20.5 15.1588 20.4934 16.3096 20.4422C17.0917 20.4055 17.6185 20.2996 18.107 20.1106C18.5404 19.9423 18.8552 19.7402 19.1874 19.4085C19.5236 19.0718 19.7245 18.7594 19.8907 18.3283C20.0813 17.8358 20.1871 17.3098 20.2232 16.5289C20.2749 15.4248 20.281 15.0389 20.281 12.5C20.281 10.0255 20.2744 9.62221 20.2232 8.47137C20.1864 7.68906 20.0805 7.16149 19.8913 6.67318C19.7234 6.24038 19.5217 5.92635 19.1884 5.59255C18.853 5.25715 18.5416 5.05693 18.1071 4.88942C17.618 4.69954 17.0924 4.59396 16.3098 4.55781C15.2058 4.50605 14.8199 4.5 12.281 4.5ZM12.281 2.5C14.9976 2.5 15.3368 2.51 16.4035 2.56C17.4676 2.60917 18.1935 2.7775 18.831 3.025C19.4901 3.27917 20.0468 3.6225 20.6026 4.17833C21.1576 4.73417 21.501 5.2925 21.756 5.95C22.0026 6.58667 22.171 7.31333 22.221 8.3775C22.2685 9.44417 22.281 9.78333 22.281 12.5C22.281 15.2167 22.271 15.5558 22.221 16.6225C22.1718 17.6867 22.0026 18.4125 21.756 19.05C21.5018 19.7092 21.1576 20.2658 20.6026 20.8217C20.0468 21.3767 19.4876 21.72 18.831 21.975C18.1935 22.2217 17.4676 22.39 16.4035 22.44C15.3368 22.4875 14.9976 22.5 12.281 22.5C9.56431 22.5 9.22514 22.49 8.15848 22.44C7.09431 22.3908 6.36931 22.2217 5.73098 21.975C5.07264 21.7208 4.51514 21.3767 3.95931 20.8217C3.40348 20.2658 3.06098 19.7067 2.80598 19.05C2.55848 18.4125 2.39098 17.6867 2.34098 16.6225C2.29348 15.5558 2.28098 15.2167 2.28098 12.5C2.28098 9.78333 2.29098 9.44417 2.34098 8.3775C2.39014 7.3125 2.55848 6.5875 2.80598 5.95C3.06014 5.29167 3.40348 4.73417 3.95931 4.17833C4.51514 3.6225 5.07348 3.28 5.73098 3.025C6.36848 2.7775 7.09348 2.61 8.15848 2.56C9.22514 2.5125 9.56431 2.5 12.281 2.5Z" fill="black"/>
</g>
</svg>
